<svg width="21" height="24" viewBox="0 0 21 24" fill="none" xmlns="http://www.w3.org/2000/svg">
<path fill-rule="evenodd" clip-rule="evenodd" d="M14.7519 0C13.4722 0.0884476 11.9765 0.906953 11.1049 1.97282C10.3098 2.93974 9.65566 4.37588 9.91067 5.77154C11.3089 5.81502 12.7536 4.97702 13.5908 3.89317C14.3738 2.88427 14.9664 1.45713 14.7519 0H14.7519Z" fill="white"/>
<path fill-rule="evenodd" clip-rule="evenodd" d="M19.8051 8.04971C18.5766 6.509 16.8502 5.61489 15.2197 5.61489C13.0672 5.61489 12.1567 6.64552 10.6613 6.64552C9.11931 6.64552 7.94783 5.61788 6.08636 5.61788C4.25789 5.61788 2.31093 6.73553 1.07644 8.64679C-0.659033 11.3381 -0.362026 16.3983 2.45041 20.7084C3.4569 22.2506 4.80088 23.9848 6.55884 23.9998C8.12332 24.0148 8.5643 22.9962 10.6838 22.9857C12.8032 22.9737 13.2052 24.0133 14.7667 23.9968C16.5262 23.9833 17.9436 22.0615 18.9501 20.5194C19.6716 19.4137 19.9401 18.8571 20.4996 17.609C16.4302 16.0593 15.7777 10.2715 19.8051 8.04971Z" fill="white"/>
</svg>
