<svg width="18" height="19" viewBox="0 0 18 19" fill="none" xmlns="http://www.w3.org/2000/svg">
<path fill-rule="evenodd" clip-rule="evenodd" d="M14.6705 2.94491C14.6267 3.55498 14.0757 4.00606 13.4641 4.00606H10.7609V3.81042C10.7609 3.80349 10.7604 3.79664 10.7604 3.78971C11.2101 3.38204 12.1857 2.49779 12.7148 2.01815C13.0156 1.74558 13.4363 1.61835 13.8253 1.73437C14.3835 1.90087 14.7113 2.37555 14.6705 2.9449L14.6705 2.94491ZM7.23912 3.81035V4.00599H4.47785C3.74829 4.00599 3.17412 3.32586 3.35633 2.56627C3.43659 2.23176 3.67804 1.94661 3.99034 1.80226C4.41918 1.60405 4.89421 1.66768 5.25438 1.99369L7.23961 3.79305C7.2395 3.79885 7.23912 3.80455 7.23912 3.81035ZM16.8261 4.00599H15.5158C15.6887 3.73247 15.8027 3.42546 15.8352 3.10075C15.9391 2.06304 15.3926 1.13281 14.4622 0.720393C13.607 0.341303 12.6459 0.496273 11.9539 1.12395L10.2994 2.62336C9.97723 2.27095 9.51405 2.04947 8.99999 2.04947C8.48502 2.04947 8.0211 2.27166 7.69882 2.62515L6.04226 1.12377C5.34908 0.496093 4.38841 0.341723 3.53358 0.720603C2.60342 1.13305 2.05681 2.0636 2.16101 3.10127C2.1936 3.42573 2.30758 3.7326 2.48037 4.00598H1.1739C0.52555 4.00598 0 4.53156 0 5.17988V6.94075C0 7.26489 0.26279 7.52772 0.58697 7.52772H17.413C17.7372 7.52772 18 7.26493 18 6.94075V5.17988C18 4.53157 17.4744 4.00598 16.8261 4.00598V4.00599Z" fill="black"/>
<path fill-rule="evenodd" clip-rule="evenodd" d="M1.17772 8.70334V17.3143C1.17772 17.9628 1.70265 18.4885 2.35024 18.4885H7.82201V8.70333L1.17772 8.70334Z" fill="black"/>
<path fill-rule="evenodd" clip-rule="evenodd" d="M10.1777 8.70334V18.4885H15.6495C16.2971 18.4885 16.822 17.9628 16.822 17.3143V8.70335L10.1777 8.70334Z" fill="black"/>
</svg>
