<svg width="21" height="22" viewBox="0 0 21 22" fill="none" xmlns="http://www.w3.org/2000/svg">
<path fill-rule="evenodd" clip-rule="evenodd" d="M4.11113 0.351551C3.25041 -0.12442 2.23981 -0.113414 1.38459 0.358425L11.408 9.60965L14.7753 6.24069L4.11113 0.351551Z" fill="white"/>
<path fill-rule="evenodd" clip-rule="evenodd" d="M0.385001 1.30888C0.140298 1.70885 7.99877e-05 2.16654 7.99877e-05 2.65172V19.3458C7.99877e-05 19.8159 0.12793 20.2639 0.358875 20.6557L10.4369 10.5796L0.385001 1.30888Z" fill="white"/>
<path fill-rule="evenodd" clip-rule="evenodd" d="M19.2455 8.70008L16.0326 6.92844L12.4223 10.5349L16.8469 14.6128L19.2469 13.2893C20.1106 12.811 20.6278 11.9533 20.6278 10.994C20.6265 10.0346 20.1107 9.17701 19.2456 8.70008H19.2455Z" fill="white"/>
<path fill-rule="evenodd" clip-rule="evenodd" d="M11.4472 11.511L1.34405 21.6174C1.78248 21.8676 2.26352 21.9996 2.7473 21.9996C3.21461 21.9996 3.68465 21.8813 4.11483 21.6435L15.5732 15.3179L11.4472 11.511Z" fill="white"/>
</svg>
