<svg width="22" height="22" viewBox="0 0 22 22" fill="none" xmlns="http://www.w3.org/2000/svg">
<path fill-rule="evenodd" clip-rule="evenodd" d="M19.9587 15.4503C19.9114 16.5248 19.7309 17.1049 19.5805 17.4917C19.2109 18.4502 18.4502 19.2108 17.4918 19.5805C17.105 19.7309 16.5206 19.9114 15.4503 19.9586C14.2899 20.0103 13.9419 20.023 11.0066 20.023C8.07118 20.023 7.7188 20.0103 6.56261 19.9586C5.48818 19.9114 4.90799 19.7309 4.52119 19.5805C4.04424 19.4042 3.61011 19.1249 3.25773 18.7596C2.89242 18.4028 2.61307 17.9731 2.4368 17.4961C2.28638 17.1093 2.10591 16.5248 2.05873 15.4547C2.00702 14.2943 1.99426 13.9461 1.99426 11.0107C1.99426 8.07536 2.00702 7.72298 2.05873 6.56696C2.1059 5.49253 2.28638 4.91233 2.4368 4.52554C2.61307 4.04843 2.89243 3.61446 3.2621 3.26191C3.61868 2.8966 4.04845 2.61725 4.52556 2.44114C4.91235 2.29072 5.49691 2.11025 6.56698 2.06291C7.72737 2.01137 8.07555 1.99844 11.0108 1.99844C13.9505 1.99844 14.2985 2.01137 15.4547 2.06291C16.5291 2.11025 17.1093 2.29072 17.4961 2.44114C17.9731 2.61725 18.4072 2.8966 18.7596 3.26191C19.1249 3.61865 19.4043 4.04843 19.5805 4.52554C19.7309 4.91234 19.9114 5.49673 19.9587 6.56696C20.0103 7.72735 20.0232 8.07536 20.0232 11.0107C20.0232 13.9461 20.0103 14.2899 19.9587 15.4503ZM21.9399 6.46808C21.8884 5.29913 21.6993 4.49549 21.4285 3.79912C21.1492 3.05994 20.7194 2.39816 20.1563 1.84802C19.6062 1.28932 18.9401 0.85518 18.2094 0.58019C17.509 0.3094 16.7096 0.12037 15.5407 0.06883C14.363 0.01293 13.9891 0 11.0022 0C8.01526 0 7.64139 0.01293 6.46808 0.06447C5.29913 0.11601 4.49549 0.30521 3.79929 0.57583C3.05995 0.85518 2.39816 1.28496 1.84802 1.84802C1.28932 2.39816 0.85535 3.06431 0.58019 3.79492C0.3094 4.49548 0.12037 5.29476 0.06883 6.46371C0.01293 7.64139 0 8.01526 0 11.0022C0 13.9891 0.01293 14.363 0.06447 15.5363C0.11601 16.7052 0.30521 17.5089 0.576 18.2052C0.85535 18.9444 1.28932 19.6062 1.84803 20.1563C2.39817 20.715 3.06432 21.1492 3.79493 21.4242C4.49549 21.695 5.29477 21.884 6.46389 21.9355C7.63704 21.9872 8.01107 22 10.998 22C13.9849 22 14.3588 21.9872 15.5321 21.9355C16.701 21.884 17.5047 21.695 18.2009 21.4242C19.6794 20.8525 20.8483 19.6836 21.42 18.2052C21.6906 17.5047 21.8798 16.7052 21.9313 15.5363C21.9829 14.363 21.9958 13.9891 21.9958 11.0022C21.9958 8.01526 21.9914 7.64139 21.9399 6.46808Z" fill="black"/>
<path fill-rule="evenodd" clip-rule="evenodd" d="M11.0021 14.6682C8.97796 14.6682 7.33609 13.0265 7.33609 11.0022C7.33609 8.97792 8.97795 7.3362 11.0021 7.3362C13.0264 7.3362 14.6681 8.97792 14.6681 11.0022C14.6681 13.0265 13.0264 14.6682 11.0021 14.6682ZM11.0021 5.35071C7.88205 5.35071 5.35059 7.88199 5.35059 11.0022C5.35059 14.1224 7.88205 16.6537 11.0021 16.6537C14.1223 16.6537 16.6536 14.1224 16.6536 11.0022C16.6536 7.88199 14.1223 5.35071 11.0021 5.35071Z" fill="black"/>
<path fill-rule="evenodd" clip-rule="evenodd" d="M18.1968 5.12723C18.1968 5.85583 17.6061 6.4466 16.8773 6.4466C16.1487 6.4466 15.5579 5.85583 15.5579 5.12723C15.5579 4.39845 16.1487 3.80786 16.8773 3.80786C17.6061 3.80786 18.1968 4.39846 18.1968 5.12723Z" fill="black"/>
</svg>
