<svg width="21" height="24" viewBox="0 0 21 24" fill="none" xmlns="http://www.w3.org/2000/svg">
<path fill-rule="evenodd" clip-rule="evenodd" d="M10.7053 0C4.12643 0.001 0.629516 4.21606 0.629516 8.81212C0.629516 10.9432 1.82049 13.6022 3.72744 14.4452C4.27143 14.6902 4.19943 14.3912 4.66741 12.6012C4.70441 12.4522 4.68541 12.3232 4.56542 12.1842C1.83948 9.03112 4.03343 2.54902 10.3163 2.54902C19.4091 2.54902 17.7101 15.1312 11.8982 15.1312C10.4003 15.1312 9.2843 13.9552 9.63729 12.5002C10.0653 10.7671 10.9033 8.90411 10.9033 7.65509C10.9033 4.50705 6.21337 4.97405 6.21337 9.14511C6.21337 10.4341 6.66937 11.3041 6.66937 11.3041C6.66937 11.3041 5.1604 17.4002 4.88041 18.5392C4.40642 20.4673 4.94441 23.5883 4.99141 23.8573C5.02041 24.0053 5.1864 24.0523 5.2794 23.9303C5.42839 23.7353 7.25235 21.1333 7.76333 19.2523C7.94933 18.5672 8.71231 15.7872 8.71231 15.7872C9.2153 16.6952 10.6653 17.4552 12.2102 17.4552C16.8061 17.4552 20.128 13.4152 20.128 8.4021C20.112 3.59603 15.9991 -2e-05 10.7053 -2e-05L10.7053 0Z" fill="black"/>
</svg>
