<svg width="25" height="20" viewBox="0 0 25 20" fill="none" xmlns="http://www.w3.org/2000/svg">
<path fill-rule="evenodd" clip-rule="evenodd" d="M24.621 2.36769C23.7054 2.76923 22.7298 3.03538 21.7127 3.16461C22.759 2.53999 23.5577 1.55846 23.9331 0.37538C22.9576 0.956919 21.8804 1.36769 20.7324 1.59692C19.8061 0.61076 18.4858 0 17.0455 0C14.251 0 12.0013 2.26769 12.0013 5.04769C12.0013 5.44769 12.0352 5.8323 12.1183 6.19845C7.92196 5.99383 4.20884 3.98307 1.71445 0.91999C1.27898 1.67538 1.02353 2.53999 1.02353 3.47076C1.02353 5.21845 1.92373 6.76768 3.26556 7.6646C2.45461 7.64922 1.65906 7.41383 0.985061 7.04307C0.985061 7.05845 0.985061 7.07845 0.985061 7.09845C0.985061 9.55075 2.73467 11.5877 5.02903 12.0569C4.61817 12.1692 4.17038 12.2231 3.70566 12.2231C3.38251 12.2231 3.05628 12.2046 2.75007 12.1369C3.40406 14.1354 5.25985 15.6046 7.46648 15.6523C5.74918 16.9954 3.56871 17.8046 1.20819 17.8046C0.794249 17.8046 0.397243 17.7861 0.000235884 17.7354C2.2361 19.1769 4.88591 20 7.74347 20C17.0316 20 22.1097 12.3077 22.1097 5.63999C22.1097 5.41691 22.102 5.20153 22.0912 4.98768C23.093 4.27691 23.9347 3.38922 24.621 2.36768L24.621 2.36769Z" fill="black"/>
</svg>
