<svg width="100" height="100" viewBox="0 0 100 100" fill="none" xmlns="http://www.w3.org/2000/svg">
<rect x="2" y="2" width="96" height="96" fill="white" stroke="#491E4B" stroke-width="4"/>
<path d="M11.7926 71V27.3636H29.2642C32.4744 27.3636 35.152 27.8395 37.2969 28.7912C39.4418 29.7429 41.054 31.0639 42.1335 32.7543C43.2131 34.4304 43.7528 36.3622 43.7528 38.5497C43.7528 40.2543 43.4119 41.7528 42.7301 43.0455C42.0483 44.3239 41.1108 45.375 39.9176 46.1989C38.7386 47.0085 37.3892 47.5838 35.8693 47.9247V48.3509C37.5313 48.4219 39.0866 48.8906 40.5355 49.7571C41.9986 50.6236 43.1847 51.8381 44.0938 53.4006C45.0028 54.9489 45.4574 56.7955 45.4574 58.9403C45.4574 61.2557 44.8821 63.3224 43.7315 65.1406C42.5952 66.9446 40.9119 68.3722 38.6818 69.4233C36.4517 70.4744 33.7031 71 30.4361 71H11.7926ZM21.0185 63.4574H28.5398C31.1108 63.4574 32.9858 62.9673 34.1648 61.9872C35.3438 60.9929 35.9332 59.6719 35.9332 58.0241C35.9332 56.8168 35.642 55.7514 35.0597 54.8281C34.4773 53.9048 33.6463 53.1804 32.5668 52.6548C31.5014 52.1293 30.2301 51.8665 28.7528 51.8665H21.0185V63.4574ZM21.0185 45.6236H27.858C29.1222 45.6236 30.2443 45.4034 31.2244 44.9631C32.2188 44.5085 33 43.8693 33.5682 43.0455C34.1506 42.2216 34.4418 41.2344 34.4418 40.0838C34.4418 38.5071 33.8807 37.2358 32.7585 36.2699C31.6506 35.304 30.0739 34.821 28.0284 34.821H21.0185V45.6236ZM58.9819 71H49.0955L64.1594 27.3636H76.0487L91.0913 71H81.2049L70.2745 37.3352H69.9336L58.9819 71ZM58.364 53.848H81.7163V61.0497H58.364V53.848Z" fill="#491E4B"/>
</svg>
