<svg width="121" height="28" viewBox="0 0 121 28" fill="none" xmlns="http://www.w3.org/2000/svg">
<path fill-rule="evenodd" clip-rule="evenodd" d="M23.6824 23.5334C23.6824 25.4209 22.1068 26.953 20.9202 26.953H7.50356L24.3789 -1e-05H1.81601V4.46654H2.97369C2.97369 2.57906 4.19383 1.05179 5.38514 1.05179H16.9764L0.000212088 28H24.4798V23.5334H23.6823" fill="#000C22"/>
<path fill-rule="evenodd" clip-rule="evenodd" d="M32.5195 18.5866L37.2935 8.10702L42.6246 18.5866H32.5195ZM52.9504 25.8195L39.8966 0L27.933 25.8388C27.7216 26.4055 26.569 27.1211 24.936 27.1211V27.9952H31.3044V27.1211C30.1231 27.1211 28.8552 26.5351 29.1625 25.834L32.0393 19.5952H43.076L46.2122 25.8195C46.5676 26.4487 44.9778 27.1259 43.3401 27.1259V28H56.5957L56.6006 27.1259C54.5929 27.1211 53.3683 26.4967 52.9504 25.8195L52.9504 25.8195Z" fill="#000C22"/>
<path fill-rule="evenodd" clip-rule="evenodd" d="M58.1158 1.0806C60.0563 1.0806 61.6605 1.58008 61.6605 2.18523C61.6605 6.98798 61.6509 25.7907 61.6605 25.7907C61.6605 26.4343 60.0803 27.1499 58.135 27.1499L58.1304 27.9952H71.1082V27.2075C69.1821 27.2075 67.6211 26.4391 67.6211 25.7955V0.84526H71.3628C74.965 0.84526 77.8852 3.83737 77.8852 7.23291C77.8852 10.6284 74.965 13.3852 71.3579 13.3852H68.769C68.769 13.3852 77.5396 26.6648 77.5538 26.6648C77.8996 27.1691 78.0727 28 78.0727 28H87.5298V27.2123C85.7092 27.2123 84.7585 26.4583 84.2301 25.7955L75.7862 14.778C79.8401 14.5091 82.9765 11.2336 82.9765 7.34337C82.9765 3.28025 79.4846 -2e-05 75.1763 -2e-05H58.1158V1.0806" fill="#000C22"/>
<path fill-rule="evenodd" clip-rule="evenodd" d="M95.9879 18.5866L100.762 8.10702L106.093 18.5866H95.9879ZM116.423 25.8195L103.37 0L91.4059 25.8388C91.1947 26.4055 90.0468 27.1499 88.4091 27.1499V27.9952H94.7775V27.2075C93.5958 27.2075 92.3329 26.5352 92.6354 25.834L95.5123 19.5952H106.549L109.685 25.8195C110.046 26.4487 108.451 27.1547 106.813 27.1547V28H120.069L120.074 27.1835C118.066 27.1835 116.841 26.4967 116.423 25.8195H116.423Z" fill="#000C22"/>
</svg>
